# xmcd
#
# Track frame offsets: 
#        150
#        19772
#        35247
#        54819
#
# Disc length: 934 seconds
#
# Revision: 2
# Processed by: cddbd v1.5.2PL0 Copyright (c) Steve Scherf et al.
# Submitted via: ExactAudioCopyFreeDBPlugin 1.0
#
DISCID=2a03a404
DTITLE=愛美 - We're the stars
DYEAR=2013
DGENRE=Anime
TTITLE0=We’re the stars
TTITLE1=We can do it
TTITLE2=We’re the stars (Instrumental)
TTITLE3=We can do it (Instrumental)
EXTD=YEAR: 2004
EXTT0=
EXTT1=
EXTT2=
EXTT3=
PLAYORDER=
